<svg width="7" height="10" viewBox="0 0 7 10" fill="none" xmlns="http://www.w3.org/2000/svg">
<path d="M6.74297 1.91235L5.21354 0.273682C5.04948 0.0979004 4.82708 -0.00170898 4.59557 -0.00170898H0.875C0.391927 0.00024414 0 0.420166 0 0.937744V9.06274C0 9.58032 0.391927 10.0002 0.875 10.0002H6.125C6.60807 10.0002 7 9.58032 7 9.06274V2.57642C7 2.32837 6.90703 2.08813 6.74297 1.91235ZM6.05391 2.50024H4.66667V1.01392L6.05391 2.50024ZM0.875 9.06274V0.937744H3.79167V2.96899C3.79167 3.22876 3.98672 3.43774 4.22917 3.43774H6.125V9.06274H0.875ZM1.45833 8.12524H5.54167V5.62524L5.11328 5.16626C5.0276 5.07446 4.88906 5.07446 4.80339 5.16626L3.20833 6.87524L2.48828 6.10376C2.4026 6.01196 2.26406 6.01196 2.17839 6.10376L1.45833 6.87524V8.12524ZM2.33333 3.43774C1.85026 3.43774 1.45833 3.85767 1.45833 4.37524C1.45833 4.89282 1.85026 5.31274 2.33333 5.31274C2.81641 5.31274 3.20833 4.89282 3.20833 4.37524C3.20833 3.85767 2.81641 3.43774 2.33333 3.43774Z" fill="#5CA3F6"/>
</svg>
