<svg width="14" height="14" viewBox="0 0 14 14" fill="none" xmlns="http://www.w3.org/2000/svg">
<path fill-rule="evenodd" clip-rule="evenodd" d="M13.2175 11.4999L7.88929 1.45926C7.69247 1.08865 7.30348 0.856445 6.87945 0.856445C6.45543 0.856445 6.06643 1.08865 5.86961 1.45926L0.540804 11.4999C0.355671 11.8486 0.368776 12.2675 0.575358 12.6044C0.781939 12.9412 1.15194 13.147 1.55093 13.1469H12.2074C12.6064 13.147 12.9764 12.9412 13.183 12.6044C13.3896 12.2675 13.4027 11.8486 13.2175 11.4999ZM6.30912 4.98785C6.30912 4.67719 6.56434 4.42535 6.87917 4.42535C7.194 4.42535 7.44922 4.67719 7.44922 4.98785V8.36285C7.44922 8.67351 7.194 8.92535 6.87917 8.92535C6.56434 8.92535 6.30912 8.67351 6.30912 8.36285V4.98785ZM6.89171 11.4622H6.90767C7.13404 11.4586 7.34936 11.3651 7.50493 11.2028C7.6605 11.0405 7.74317 10.8231 7.73424 10.5999C7.71589 10.1394 7.33252 9.77526 6.86549 9.77471H6.84953C6.62372 9.77879 6.40905 9.87227 6.25382 10.0341C6.09858 10.196 6.0158 10.4126 6.0241 10.6353C6.04182 11.0959 6.4246 11.4607 6.89171 11.4622Z" fill="#FF3654"/>
</svg>
