<svg width="18" height="14" viewBox="0 0 18 14" fill="none" xmlns="http://www.w3.org/2000/svg">
<path d="M17.55 12.251H15.3V3.1031C15.3 2.35771 14.6945 1.75095 13.95 1.75095H10.8V3.50095H13.5V14.001H17.55C17.7986 14.001 18 13.8052 18 13.5635V12.6885C18 12.4467 17.7986 12.251 17.55 12.251ZM8.78175 0.0285671L3.38175 1.38865C2.98097 1.48954 2.7 1.85212 2.7 2.26829V12.251H0.45C0.201375 12.251 0 12.4467 0 12.6885V13.5635C0 13.8052 0.201375 14.001 0.45 14.001H9.9V0.908216C9.9 0.318138 9.34987 -0.114714 8.78175 0.0285671ZM7.425 7.87595C7.05234 7.87595 6.75 7.48412 6.75 7.00095C6.75 6.51779 7.05234 6.12595 7.425 6.12595C7.79766 6.12595 8.1 6.51779 8.1 7.00095C8.1 7.48412 7.79766 7.87595 7.425 7.87595Z" fill="#757296"/>
</svg>
