<svg width="17" height="16" viewBox="0 0 17 16" fill="none" xmlns="http://www.w3.org/2000/svg">
<path d="M15.8715 7.62502C15.8742 8.61492 15.6304 9.59143 15.16 10.475C14.6022 11.5338 13.7448 12.4244 12.6836 13.047C11.6225 13.6696 10.3997 13.9996 9.15204 14C8.10865 14.0026 7.07938 13.7713 6.14806 13.325L1.64209 14.75L3.14408 10.475C2.67366 9.59143 2.42989 8.61492 2.43261 7.62502C2.43309 6.44134 2.78092 5.28116 3.43714 4.27443C4.09336 3.26771 5.03204 2.4542 6.14806 1.92502C7.07938 1.47872 8.10865 1.24744 9.15204 1.25002H9.5473C11.195 1.33627 12.7513 1.99609 13.9182 3.10317C15.0851 4.21024 15.7806 5.68676 15.8715 7.25002V7.62502Z" stroke="#131340" stroke-width="2" stroke-linecap="round" stroke-linejoin="round"/>
</svg>
