<svg width="18" height="18" viewBox="0 0 18 18" fill="none" xmlns="http://www.w3.org/2000/svg">
<path d="M16.6619 12.6901V14.9401C16.6628 15.1489 16.6177 15.3557 16.5295 15.5471C16.4413 15.7385 16.3119 15.9103 16.1497 16.0515C15.9875 16.1927 15.796 16.3002 15.5874 16.3671C15.3788 16.434 15.1578 16.4589 14.9386 16.4401C12.506 16.1893 10.1694 15.4007 8.11638 14.1376C6.20635 12.9861 4.58697 11.4497 3.37326 9.63757C2.03726 7.68098 1.20584 5.45332 0.946358 3.13507C0.926603 2.92767 0.952583 2.71864 1.02264 2.52129C1.0927 2.32394 1.20531 2.14259 1.35329 1.98879C1.50127 1.83499 1.68139 1.7121 1.88217 1.62796C2.08295 1.54382 2.3 1.50027 2.51949 1.50007H4.89106C5.2747 1.49649 5.64663 1.62538 5.93752 1.86272C6.2284 2.10006 6.4184 2.42966 6.4721 2.79007C6.5722 3.51012 6.75783 4.21712 7.02546 4.89757C7.13182 5.16602 7.15484 5.45776 7.09179 5.73823C7.02874 6.01871 6.88227 6.27616 6.66973 6.48007L5.66577 7.43257C6.79112 9.31023 8.42979 10.8649 10.4089 11.9326L11.4129 10.9801C11.6278 10.7784 11.8991 10.6395 12.1948 10.5796C12.4904 10.5198 12.7979 10.5417 13.0808 10.6426C13.7981 10.8965 14.5433 11.0726 15.3022 11.1676C15.6862 11.219 16.0369 11.4025 16.2876 11.6832C16.5383 11.9639 16.6715 12.3223 16.6619 12.6901Z" stroke="#131340" stroke-width="1.66667" stroke-linecap="round" stroke-linejoin="round"/>
</svg>
