<svg width="24" height="16" viewBox="0 0 24 16" fill="none" xmlns="http://www.w3.org/2000/svg">
<path d="M15.5953 7.99995C15.5953 9.90776 13.9828 11.45 11.9906 11.45C9.99844 11.45 8.39062 9.90308 8.39062 7.99995C8.39062 6.09214 10.0031 4.54995 11.9953 4.54995C13.9875 4.54995 15.5953 6.09214 15.5953 7.99995ZM12 0.809326C9.9375 0.818701 7.80469 1.32026 5.77969 2.2812C4.27969 3.02183 2.81719 4.07183 1.54688 5.36558C0.923437 6.02651 0.126563 6.97808 0 7.99995C0.0140625 8.8812 0.960938 9.97339 1.54688 10.6343C2.7375 11.8765 4.1625 12.8937 5.77969 13.7187C7.66406 14.6328 9.75 15.1625 12 15.1906C14.0625 15.1812 16.2 14.675 18.2156 13.7187C19.7156 12.9781 21.1828 11.9281 22.4484 10.6343C23.0719 9.97339 23.8687 9.01714 23.9953 7.99995C23.9812 7.1187 23.0344 6.02651 22.4484 5.36558C21.2578 4.12339 19.8328 3.1062 18.2156 2.2812C16.3313 1.36714 14.2406 0.842139 12 0.809326ZM12 2.59526C15.1219 2.59526 17.6531 5.01401 17.6531 7.99995C17.6531 10.9859 15.1219 13.4046 12 13.4046C8.87813 13.4046 6.34687 10.9859 6.34687 7.99995C6.34687 5.01401 8.87813 2.59526 12 2.59526Z" fill="#131340"/>
</svg>
