<svg width="12" height="14" viewBox="0 0 12 14" fill="none" xmlns="http://www.w3.org/2000/svg">
<path d="M10.1562 7.00001H3.85937V4.18088C3.85937 3.09807 4.66425 2.19846 5.66972 2.18752C6.68534 2.17659 7.51561 3.06526 7.51561 4.15627V4.59377C7.51561 4.95744 7.78729 5.25002 8.12498 5.25002H8.93748C9.27518 5.25002 9.54686 4.95744 9.54686 4.59377V4.15627C9.54686 1.8594 7.8076 -0.00817619 5.67479 2.69204e-05C3.54199 0.00823003 1.82812 1.90041 1.82812 4.19728V7.00001H1.21875C0.545897 7.00001 0 7.5879 0 8.31251V12.6875C0 13.4121 0.545897 14 1.21875 14H10.1562C10.8291 14 11.375 13.4121 11.375 12.6875V8.31251C11.375 7.5879 10.8291 7.00001 10.1562 7.00001ZM6.70311 11.1563C6.70311 11.7606 6.24862 12.25 5.68749 12.25C5.12636 12.25 4.67187 11.7606 4.67187 11.1563V9.84376C4.67187 9.23946 5.12636 8.75001 5.68749 8.75001C6.24862 8.75001 6.70311 9.23946 6.70311 9.84376V11.1563Z" fill="#757296"/>
</svg>
